<svg xmlns="http://www.w3.org/2000/svg" version="1.1" xmlns:xlink="http://www.w3.org/1999/xlink" xmlns:svgjs="http://svgjs.com/svgjs" width="1440" height="560" preserveAspectRatio="none" viewBox="0 0 1440 560"><g mask="url(&quot;#SvgjsMask1036&quot;)" fill="none"><path d="M -216.32936582099384,217 C -194.13,243 -149.73,373.6 -105.32936582099384,347 C -60.93,320.4 -38.73,62 5.670634179006157,84 C 50.07,106 72.27,433.8 116.67063417900616,457 C 161.07,480.2 183.27,235.2 227.67063417900616,200 C 272.07,164.8 294.27,285.8 338.67063417900613,281 C 383.07,276.2 405.27,147.2 449.67063417900613,176 C 494.07,204.8 516.27,448 560.6706341790061,425 C 605.07,402 627.27,49.6 671.6706341790061,61 C 716.07,72.4 738.27,476.4 782.6706341790061,482 C 827.07,487.6 849.27,125 893.6706341790061,89 C 938.07,53 960.27,303.8 1004.6706341790061,302 C 1049.07,300.2 1071.27,33.6 1115.6706341790061,80 C 1160.07,126.4 1182.27,529.2 1226.6706341790061,534 C 1271.07,538.8 1295,138.4 1337.6706341790061,104 C 1380.34,69.6 1419.53,310.4 1440,362" stroke="rgba(140, 154, 167, 1)" stroke-width="2"></path><path d="M -14.58480469411883,352 C 7.62,310.4 52.02,138.4 96.41519530588117,144 C 140.82,149.6 163.02,406 207.41519530588118,380 C 251.82,354 274.02,-10 318.4151953058812,14 C 362.82,38 385.02,450.4 429.4151953058812,500 C 473.82,549.6 496.02,274.6 540.4151953058812,262 C 584.82,249.4 607.02,450.6 651.4151953058812,437 C 695.82,423.4 718.02,195.2 762.4151953058812,194 C 806.82,192.8 829.02,415.8 873.4151953058812,431 C 917.82,446.2 940.02,273 984.4151953058812,270 C 1028.82,267 1051.02,450.2 1095.415195305881,416 C 1139.82,381.8 1162.02,117.8 1206.415195305881,99 C 1250.82,80.2 1273.02,330.4 1317.415195305881,322 C 1361.82,313.6 1384.02,31.8 1428.415195305881,57 C 1472.82,82.2 1537.1,440.6 1539.415195305881,448 C 1541.73,455.4 1459.88,164.8 1440,94" stroke="rgba(140, 154, 167, 1)" stroke-width="2"></path><path d="M -67.3192946554058,113 C -45.12,199.8 -0.72,560.4 43.6807053445942,547 C 88.08,533.6 110.28,59.2 154.6807053445942,46 C 199.08,32.8 221.28,444.4 265.68070534459423,481 C 310.08,517.6 332.28,233.6 376.68070534459423,229 C 421.08,224.4 443.28,458 487.68070534459423,458 C 532.08,458 554.28,213.6 598.6807053445942,229 C 643.08,244.4 665.28,557.4 709.6807053445942,535 C 754.08,512.6 776.28,115.8 820.6807053445942,117 C 865.08,118.2 887.28,529.8 931.6807053445942,541 C 976.08,552.2 998.28,211.8 1042.6807053445941,173 C 1087.08,134.2 1109.28,371.4 1153.6807053445941,347 C 1198.08,322.6 1220.28,34.2 1264.6807053445941,51 C 1309.08,67.8 1331.28,400.4 1375.6807053445941,431 C 1420.08,461.6 1473.82,191.8 1486.6807053445941,204 C 1499.54,216.2 1449.34,434.4 1440,492" stroke="rgba(140, 154, 167, 1)" stroke-width="2"></path><path d="M -158.1946486984277,547 C -135.99,478.6 -91.59,229.2 -47.194648698427706,205 C -2.79,180.8 19.41,446 63.805351301572294,426 C 108.21,406 130.41,124.6 174.8053513015723,105 C 219.21,85.4 241.41,315 285.8053513015723,328 C 330.21,341 352.41,126.4 396.8053513015723,170 C 441.21,213.6 463.41,527.6 507.8053513015723,546 C 552.21,564.4 574.41,277.6 618.8053513015723,262 C 663.21,246.4 685.41,482.2 729.8053513015723,468 C 774.21,453.8 796.41,224.2 840.8053513015723,191 C 885.21,157.8 907.41,327.8 951.8053513015723,302 C 996.21,276.2 1018.41,41.8 1062.8053513015723,62 C 1107.21,82.2 1129.41,397.4 1173.8053513015723,403 C 1218.21,408.6 1240.41,91.2 1284.8053513015723,90 C 1329.21,88.8 1364.77,382 1395.8053513015723,397 C 1426.84,412 1431.16,211.4 1440,165" stroke="rgba(140, 154, 167, 1)" stroke-width="2"></path><path d="M -148.07481775021145,539 C -125.87,447 -81.47,125.6 -37.074817750211444,79 C 7.33,32.4 29.53,303.8 73.92518224978855,306 C 118.33,308.2 140.53,79.8 184.92518224978855,90 C 229.33,100.2 251.53,325.4 295.9251822497886,357 C 340.33,388.6 362.53,260.2 406.9251822497886,248 C 451.33,235.8 473.53,340 517.9251822497886,296 C 562.33,252 584.53,-9 628.9251822497886,28 C 673.33,65 695.53,433 739.9251822497886,481 C 784.33,529 806.53,292 850.9251822497886,268 C 895.33,244 917.53,392.6 961.9251822497886,361 C 1006.33,329.4 1028.53,75.2 1072.9251822497886,110 C 1117.33,144.8 1139.53,524.8 1183.9251822497886,535 C 1228.33,545.2 1250.53,193.2 1294.9251822497886,161 C 1339.33,128.8 1376.91,401.4 1405.9251822497886,374 C 1434.94,346.6 1433.19,94 1440,24" stroke="rgba(140, 154, 167, 1)" stroke-width="2"></path><path d="M -156.3877469420379,241 C -134.19,284.6 -89.79,501.4 -45.3877469420379,459 C -0.99,416.6 21.21,62 65.6122530579621,29 C 110.01,-4 132.21,249.8 176.6122530579621,294 C 221.01,338.2 243.21,215.4 287.6122530579621,250 C 332.01,284.6 354.21,476.2 398.6122530579621,467 C 443.01,457.8 465.21,191.4 509.6122530579621,204 C 554.01,216.6 576.21,524.4 620.6122530579621,530 C 665.01,535.6 687.21,273.6 731.6122530579621,232 C 776.01,190.4 798.21,336.2 842.6122530579621,322 C 887.01,307.8 909.21,143.4 953.6122530579621,161 C 998.01,178.6 1020.21,398.4 1064.612253057962,410 C 1109.01,421.6 1131.21,198.6 1175.612253057962,219 C 1220.01,239.4 1242.21,520.4 1286.612253057962,512 C 1331.01,503.6 1366.93,206.4 1397.612253057962,177 C 1428.29,147.6 1431.52,327.4 1440,365" stroke="rgba(140, 154, 167, 1)" stroke-width="2"></path><path d="M -187.78840615969193,364 C -165.59,332.8 -121.19,193 -76.78840615969192,208 C -32.39,223 -10.19,437.6 34.21159384030808,439 C 78.61,440.4 100.81,218.6 145.21159384030807,215 C 189.61,211.4 211.81,410.6 256.21159384030807,421 C 300.61,431.4 322.81,273.8 367.21159384030807,267 C 411.61,260.2 433.81,432.2 478.21159384030807,387 C 522.61,341.8 544.81,29.6 589.2115938403081,41 C 633.61,52.4 655.81,413.8 700.2115938403081,444 C 744.61,474.2 766.81,174 811.2115938403081,192 C 855.61,210 877.81,532.8 922.2115938403081,534 C 966.61,535.2 988.81,204.6 1033.211593840308,198 C 1077.61,191.4 1099.81,528.6 1144.211593840308,501 C 1188.61,473.4 1210.81,73.4 1255.211593840308,60 C 1299.61,46.6 1329.25,426.2 1366.211593840308,434 C 1403.17,441.8 1425.24,166 1440,99" stroke="rgba(140, 154, 167, 1)" stroke-width="2"></path></g><defs><mask id="SvgjsMask1036"><rect width="1440" height="560" fill="#ffffff"></rect></mask></defs></svg>